<svg version="1.1" id="Layer_1" xmlns="http://www.w3.org/2000/svg" xmlns:xlink="http://www.w3.org/1999/xlink" x="0px" y="0px"
	 width="100%" viewBox="0 0 512 512" enable-background="new 0 0 512 512" xml:space="preserve">
<path fill="#000000" opacity="1.000000" stroke="none" 
	d="
M338.000000,513.000000 
	C225.360703,513.000000 113.221397,513.000000 1.041047,513.000000 
	C1.041047,342.402344 1.041047,171.804672 1.041047,1.103501 
	C171.555969,1.103501 342.112030,1.103501 512.834045,1.103501 
	C512.834045,171.666534 512.834045,342.333252 512.834045,513.000000 
	C454.804657,513.000000 396.652313,513.000000 338.000000,513.000000 
M304.942993,77.481102 
	C284.704926,65.857399 262.950500,62.566154 240.089615,66.012482 
	C214.785294,69.827164 194.492706,82.445656 179.180939,102.659950 
	C162.800568,124.284973 157.003036,148.887726 160.996109,175.712357 
	C164.576996,199.768051 175.775543,219.452759 194.492538,235.160843 
	C208.073090,246.558197 223.502975,253.321548 241.821838,256.596893 
	C236.201340,257.501648 231.612808,258.347260 226.993805,258.965027 
	C208.158295,261.484253 190.210526,267.169769 173.287460,275.542908 
	C150.094376,287.018341 129.528809,302.068237 112.425034,321.853668 
	C101.373573,334.637848 91.993652,348.437927 84.404999,363.368744 
	C74.933151,382.004852 69.069565,401.964111 66.161850,422.661804 
	C65.275162,428.973419 63.651711,435.555481 67.849388,441.791809 
	C71.663269,447.457916 78.777313,450.643250 86.032890,448.901459 
	C91.322250,447.631683 97.450356,440.811035 97.996986,435.606232 
	C99.542099,420.894409 102.558777,406.541077 107.958000,392.705597 
	C119.500793,363.127136 137.707031,338.664276 163.505417,320.021912 
	C177.308548,310.047516 192.339691,302.374786 208.513931,297.053131 
	C228.083954,290.614166 248.249115,288.735352 268.715149,290.069611 
	C275.244141,290.495239 281.931824,290.995331 288.175201,292.769409 
	C301.055695,296.429474 313.680084,300.987976 326.421631,305.140717 
	C334.144806,307.657837 342.322235,305.005981 345.978882,298.869751 
	C350.253937,291.695770 349.565643,282.792389 342.829468,277.686066 
	C337.739380,273.827545 331.399170,271.430573 325.350006,269.060364 
	C307.981293,262.254822 289.845795,258.512482 271.300995,256.624176 
	C306.337677,251.102127 348.608398,222.394272 352.702789,166.141205 
	C354.739258,138.161804 342.785797,100.330070 304.942993,77.481102 
M334.886414,369.000305 
	C325.589172,369.581116 321.059296,375.976868 320.882080,387.386292 
	C320.785980,393.574371 328.835663,401.568512 335.650970,401.170441 
	C346.561615,400.533203 357.536713,400.999786 369.000031,400.999786 
	C369.000031,412.314423 369.341736,423.112610 368.870667,433.875214 
	C368.592255,440.237091 373.109192,446.677002 379.666931,448.784576 
	C387.271698,451.228790 395.659424,448.058990 399.029724,441.552979 
	C400.182739,439.327271 400.867950,436.610809 400.913910,434.102936 
	C401.114014,423.181335 400.999878,412.253967 400.999878,400.999908 
	C412.355682,400.999908 422.995605,401.004517 433.635529,400.998566 
	C443.122040,400.993256 448.991150,395.106171 449.000000,385.601776 
	C449.009857,375.017029 443.530884,369.011505 433.831940,369.002350 
	C423.053101,368.992188 412.274231,369.000061 400.999878,369.000061 
	C400.999878,357.663269 401.008514,346.877563 400.997253,336.091888 
	C400.987518,326.759064 395.000763,321.005798 385.321716,321.000000 
	C375.120209,320.993896 369.018158,326.576172 369.002747,335.953217 
	C368.989594,343.950470 369.000000,351.947754 369.000000,359.945038 
	C369.000000,362.869720 369.000000,365.794434 369.000000,369.000031 
	C357.430664,369.000031 346.618774,369.000031 334.886414,369.000305 
z"/>
<path fill="#0077B6" opacity="1.000000" stroke="none" 
	d="
M305.214569,77.735298 
	C342.785797,100.330070 354.739258,138.161804 352.702789,166.141205 
	C348.608398,222.394272 306.337677,251.102127 271.300995,256.624176 
	C289.845795,258.512482 307.981293,262.254822 325.350006,269.060364 
	C331.399170,271.430573 337.739380,273.827545 342.829468,277.686066 
	C349.565643,282.792389 350.253937,291.695770 345.978882,298.869751 
	C342.322235,305.005981 334.144806,307.657837 326.421631,305.140717 
	C313.680084,300.987976 301.055695,296.429474 288.175201,292.769409 
	C281.931824,290.995331 275.244141,290.495239 268.715149,290.069611 
	C248.249115,288.735352 228.083954,290.614166 208.513931,297.053131 
	C192.339691,302.374786 177.308548,310.047516 163.505417,320.021912 
	C137.707031,338.664276 119.500793,363.127136 107.958000,392.705597 
	C102.558777,406.541077 99.542099,420.894409 97.996986,435.606232 
	C97.450356,440.811035 91.322250,447.631683 86.032890,448.901459 
	C78.777313,450.643250 71.663269,447.457916 67.849388,441.791809 
	C63.651711,435.555481 65.275162,428.973419 66.161850,422.661804 
	C69.069565,401.964111 74.933151,382.004852 84.404999,363.368744 
	C91.993652,348.437927 101.373573,334.637848 112.425034,321.853668 
	C129.528809,302.068237 150.094376,287.018341 173.287460,275.542908 
	C190.210526,267.169769 208.158295,261.484253 226.993805,258.965027 
	C231.612808,258.347260 236.201340,257.501648 241.821838,256.596893 
	C223.502975,253.321548 208.073090,246.558197 194.492538,235.160843 
	C175.775543,219.452759 164.576996,199.768051 160.996109,175.712357 
	C157.003036,148.887726 162.800568,124.284973 179.180939,102.659950 
	C194.492706,82.445656 214.785294,69.827164 240.089615,66.012482 
	C262.950500,62.566154 284.704926,65.857399 305.214569,77.735298 
M193.000458,162.454559 
	C193.314850,165.721664 193.426910,169.023132 193.974716,172.250610 
	C199.916245,207.255310 234.172729,229.657547 268.232635,223.196152 
	C302.052673,216.780273 326.634705,181.798615 317.953766,146.714432 
	C309.621094,113.037628 279.006836,93.224144 246.376541,98.279839 
	C215.561203,103.054344 192.283936,129.794830 193.000458,162.454559 
z"/>
<path fill="#0077B6" opacity="1.000000" stroke="none" 
	d="
M335.346649,369.000183 
	C346.618774,369.000031 357.430664,369.000031 369.000000,369.000031 
	C369.000000,365.794434 369.000000,362.869720 369.000000,359.945038 
	C369.000000,351.947754 368.989594,343.950470 369.002747,335.953217 
	C369.018158,326.576172 375.120209,320.993896 385.321716,321.000000 
	C395.000763,321.005798 400.987518,326.759064 400.997253,336.091888 
	C401.008514,346.877563 400.999878,357.663269 400.999878,369.000061 
	C412.274231,369.000061 423.053101,368.992188 433.831940,369.002350 
	C443.530884,369.011505 449.009857,375.017029 449.000000,385.601776 
	C448.991150,395.106171 443.122040,400.993256 433.635529,400.998566 
	C422.995605,401.004517 412.355682,400.999908 400.999878,400.999908 
	C400.999878,412.253967 401.114014,423.181335 400.913910,434.102936 
	C400.867950,436.610809 400.182739,439.327271 399.029724,441.552979 
	C395.659424,448.058990 387.271698,451.228790 379.666931,448.784576 
	C373.109192,446.677002 368.592255,440.237091 368.870667,433.875214 
	C369.341736,423.112610 369.000031,412.314423 369.000031,400.999786 
	C357.536713,400.999786 346.561615,400.533203 335.650970,401.170441 
	C328.835663,401.568512 320.785980,393.574371 320.882080,387.386292 
	C321.059296,375.976868 325.589172,369.581116 335.346649,369.000183 
z"/>
<path fill="#000000" opacity="1.000000" stroke="none" 
	d="
M193.000519,161.969223 
	C192.283936,129.794830 215.561203,103.054344 246.376541,98.279839 
	C279.006836,93.224144 309.621094,113.037628 317.953766,146.714432 
	C326.634705,181.798615 302.052673,216.780273 268.232635,223.196152 
	C234.172729,229.657547 199.916245,207.255310 193.974716,172.250610 
	C193.426910,169.023132 193.314850,165.721664 193.000519,161.969223 
z"/>
</svg>