<svg version="1.1" id="Layer_1" xmlns="http://www.w3.org/2000/svg" xmlns:xlink="http://www.w3.org/1999/xlink" x="0px" y="0px"
	 width="100%" viewBox="0 0 512 512" enable-background="new 0 0 512 512" xml:space="preserve">
<path fill="#000000" opacity="1.000000" stroke="none" 
	d="
M513.000000,364.000000 
	C513.000000,413.640564 513.000000,463.281128 513.000000,512.960815 
	C342.449127,512.960815 171.898254,512.960815 1.000000,512.960815 
	C1.000000,455.979584 1.000000,398.958435 1.350549,341.359406 
	C8.393972,352.328674 18.817242,355.169067 31.519058,355.140015 
	C137.971695,354.896454 244.425125,355.001556 350.878326,355.001587 
	C353.137787,355.001587 355.397217,355.001587 357.554626,355.001587 
	C360.549774,374.540710 368.200348,390.804443 382.290009,403.810669 
	C401.042084,421.120789 423.574432,427.961182 448.123596,423.544342 
	C480.453400,417.727661 501.886932,398.204010 511.060852,366.097046 
	C511.294312,365.280029 512.335510,364.693817 513.000000,364.000000 
z"/>
<path fill="#000000" opacity="1.000000" stroke="none" 
	d="
M0.999999,103.000000 
	C1.000000,69.015739 1.000000,35.031483 1.000000,1.023613 
	C171.571899,1.023613 342.143799,1.023613 513.000000,1.023613 
	C513.000000,110.021271 513.000000,219.042786 512.615234,328.596405 
	C511.828766,328.464386 511.249573,327.849213 511.051025,327.129089 
	C503.554077,299.936157 486.536865,281.626373 459.845642,272.484192 
	C454.771118,270.746063 449.449341,269.729706 444.000854,268.317932 
	C444.000854,265.905090 444.000885,263.752380 444.000854,261.599701 
	C444.000641,212.606049 444.129242,163.611572 443.810089,114.619995 
	C443.776459,109.459213 442.070648,103.748474 439.447601,99.288666 
	C434.792114,91.373322 426.550934,89.021858 417.745850,89.019112 
	C316.425629,88.987549 215.105438,88.998604 113.785233,88.998558 
	C84.788994,88.998550 55.792412,88.919960 26.796686,89.042702 
	C16.634785,89.085724 7.961352,92.319481 2.889648,102.022987 
	C2.620804,102.537361 1.646103,102.682808 0.999999,103.000000 
z"/>
<path fill="#013B95" opacity="1.000000" stroke="none" 
	d="
M0.999999,103.468658 
	C1.646103,102.682808 2.620804,102.537361 2.889648,102.022987 
	C7.961352,92.319481 16.634785,89.085724 26.796686,89.042702 
	C55.792412,88.919960 84.788994,88.998550 113.785233,88.998558 
	C215.105438,88.998604 316.425629,88.987549 417.745850,89.019112 
	C426.550934,89.021858 434.792114,91.373322 439.447601,99.288666 
	C442.070648,103.748474 443.776459,109.459213 443.810089,114.619995 
	C444.129242,163.611572 444.000641,212.606049 444.000854,261.599701 
	C444.000885,263.752380 444.000854,265.905090 444.000854,268.317932 
	C449.449341,269.729706 454.771118,270.746063 459.845642,272.484192 
	C486.536865,281.626373 503.554077,299.936157 511.051025,327.129089 
	C511.249573,327.849213 511.828766,328.464386 512.615234,329.064270 
	C513.000000,340.354218 513.000000,351.708466 513.000000,363.531311 
	C512.335510,364.693817 511.294312,365.280029 511.060852,366.097046 
	C501.886932,398.204010 480.453400,417.727661 448.123596,423.544342 
	C423.574432,427.961182 401.042084,421.120789 382.290009,403.810669 
	C368.200348,390.804443 360.549774,374.540710 357.554626,355.001587 
	C355.397217,355.001587 353.137787,355.001587 350.878326,355.001587 
	C244.425125,355.001556 137.971695,354.896454 31.519058,355.140015 
	C18.817242,355.169067 8.393972,352.328674 1.350549,340.890747 
	C1.000000,261.979095 1.000000,182.958206 0.999999,103.468658 
M204.500000,338.999786 
	C255.560455,338.999786 306.620911,338.999786 357.757263,338.999786 
	C358.931946,323.525513 365.126923,310.868988 373.096222,299.063293 
	C344.347382,272.041443 315.965576,245.364594 287.392487,218.507919 
	C275.461761,227.550842 263.622925,235.719757 252.711517,244.981369 
	C235.961777,259.198517 211.639648,259.894226 196.119141,248.055298 
	C188.787323,242.462677 181.343613,237.016922 173.972931,231.474930 
	C168.341873,227.240936 162.745956,222.960220 156.915512,218.534103 
	C114.220345,258.611450 71.955460,298.284912 28.581131,338.999786 
	C87.959778,338.999786 145.729889,338.999786 204.500000,338.999786 
M346.046326,153.500412 
	C350.499847,150.095596 354.927521,146.656296 359.411621,143.292206 
	C374.972504,131.618088 390.562012,119.982109 406.103546,108.282333 
	C407.040771,107.576813 407.654755,106.441902 408.499634,105.408325 
	C284.070099,105.408325 160.070129,105.408325 34.985752,105.408325 
	C38.036156,107.993874 40.178524,109.989853 42.499870,111.749748 
	C68.266075,131.283981 94.058403,150.783798 119.846893,170.288666 
	C147.338394,191.081528 174.816254,211.892487 202.333481,232.651245 
	C217.650360,244.206146 228.570236,242.398285 241.485992,232.881409 
	C256.480804,221.832596 271.109985,210.288757 285.950226,199.028793 
	C305.780670,183.982574 325.661469,169.002731 346.046326,153.500412 
M16.938314,144.500000 
	C16.938314,204.993454 16.938314,265.486908 16.938314,327.282379 
	C27.072653,317.969177 36.110458,309.739929 45.061886,301.417755 
	C55.760067,291.471649 66.430595,281.494812 77.029419,271.442993 
	C91.602272,257.622223 106.089462,243.711182 120.637978,229.864670 
	C121.823410,228.736450 123.283333,227.896835 124.470428,226.770065 
	C130.830688,220.732773 137.144882,214.646942 143.611847,208.446655 
	C101.704132,176.748108 59.855877,145.094543 16.938313,112.632164 
	C16.938313,123.945183 16.938313,133.722595 16.938314,144.500000 
M372.998260,276.498230 
	C375.866241,279.279388 378.630981,282.178986 381.638428,284.800140 
	C383.646637,286.550446 385.617584,286.558044 388.038849,284.630676 
	C391.627960,281.773621 395.491486,278.938660 399.701874,277.251068 
	C408.791809,273.607819 418.176605,270.700287 427.597229,267.437561 
	C427.597229,216.528580 427.597229,164.995956 427.597229,112.441673 
	C384.956635,144.701401 343.063629,176.395523 300.519836,208.582031 
	C312.149078,219.323639 323.409058,229.603806 334.532166,240.029953 
	C347.250732,251.951553 359.847626,264.002991 372.998260,276.498230 
M466.468872,292.977875 
	C456.987305,286.945953 446.231415,284.283691 435.391479,284.322723 
	C424.041626,284.363617 413.286011,287.870209 403.101227,293.817078 
	C382.225586,306.006317 369.092926,334.435150 374.821106,359.887848 
	C381.153229,388.024078 409.391113,411.806732 441.576141,408.060028 
	C464.093262,405.438812 480.691772,393.953156 490.786591,374.119049 
	C504.893372,346.402344 496.307556,310.696777 466.468872,292.977875 
z"/>
<path fill="#000000" opacity="1.000000" stroke="none" 
	d="
M204.000000,338.999786 
	C145.729889,338.999786 87.959778,338.999786 28.581131,338.999786 
	C71.955460,298.284912 114.220345,258.611450 156.915512,218.534103 
	C162.745956,222.960220 168.341873,227.240936 173.972931,231.474930 
	C181.343613,237.016922 188.787323,242.462677 196.119141,248.055298 
	C211.639648,259.894226 235.961777,259.198517 252.711517,244.981369 
	C263.622925,235.719757 275.461761,227.550842 287.392487,218.507919 
	C315.965576,245.364594 344.347382,272.041443 373.096222,299.063293 
	C365.126923,310.868988 358.931946,323.525513 357.757263,338.999786 
	C306.620911,338.999786 255.560455,338.999786 204.000000,338.999786 
z"/>
<path fill="#000000" opacity="1.000000" stroke="none" 
	d="
M345.783478,153.747391 
	C325.661469,169.002731 305.780670,183.982574 285.950226,199.028793 
	C271.109985,210.288757 256.480804,221.832596 241.485992,232.881409 
	C228.570236,242.398285 217.650360,244.206146 202.333481,232.651245 
	C174.816254,211.892487 147.338394,191.081528 119.846893,170.288666 
	C94.058403,150.783798 68.266075,131.283981 42.499870,111.749748 
	C40.178524,109.989853 38.036156,107.993874 34.985752,105.408325 
	C160.070129,105.408325 284.070099,105.408325 408.499634,105.408325 
	C407.654755,106.441902 407.040771,107.576813 406.103546,108.282333 
	C390.562012,119.982109 374.972504,131.618088 359.411621,143.292206 
	C354.927521,146.656296 350.499847,150.095596 345.783478,153.747391 
z"/>
<path fill="#000000" opacity="1.000000" stroke="none" 
	d="
M16.938313,144.000000 
	C16.938313,133.722595 16.938313,123.945183 16.938313,112.632164 
	C59.855877,145.094543 101.704132,176.748108 143.611847,208.446655 
	C137.144882,214.646942 130.830688,220.732773 124.470428,226.770065 
	C123.283333,227.896835 121.823410,228.736450 120.637978,229.864670 
	C106.089462,243.711182 91.602272,257.622223 77.029419,271.442993 
	C66.430595,281.494812 55.760067,291.471649 45.061886,301.417755 
	C36.110458,309.739929 27.072653,317.969177 16.938314,327.282379 
	C16.938314,265.486908 16.938314,204.993454 16.938313,144.000000 
z"/>
<path fill="#000000" opacity="1.000000" stroke="none" 
	d="
M372.747803,276.248108 
	C359.847626,264.002991 347.250732,251.951553 334.532166,240.029953 
	C323.409058,229.603806 312.149078,219.323639 300.519836,208.582031 
	C343.063629,176.395523 384.956635,144.701401 427.597229,112.441673 
	C427.597229,164.995956 427.597229,216.528580 427.597229,267.437561 
	C418.176605,270.700287 408.791809,273.607819 399.701874,277.251068 
	C395.491486,278.938660 391.627960,281.773621 388.038849,284.630676 
	C385.617584,286.558044 383.646637,286.550446 381.638428,284.800140 
	C378.630981,282.178986 375.866241,279.279388 372.747803,276.248108 
z"/>
<path fill="#000000" opacity="1.000000" stroke="none" 
	d="
M466.747864,293.216492 
	C496.307556,310.696777 504.893372,346.402344 490.786591,374.119049 
	C480.691772,393.953156 464.093262,405.438812 441.576141,408.060028 
	C409.391113,411.806732 381.153229,388.024078 374.821106,359.887848 
	C369.092926,334.435150 382.225586,306.006317 403.101227,293.817078 
	C413.286011,287.870209 424.041626,284.363617 435.391479,284.322723 
	C446.231415,284.283691 456.987305,286.945953 466.747864,293.216492 
M427.002747,374.482605 
	C427.002747,378.552612 427.002747,382.622620 427.002747,386.537445 
	C432.868500,386.537445 437.762085,386.537445 443.251282,386.537445 
	C443.251282,375.859802 443.251282,365.632172 443.251282,354.863831 
	C454.427277,354.863831 464.994934,354.863831 475.656494,354.863831 
	C475.656494,349.392365 475.656494,344.493866 475.656494,338.809204 
	C464.649414,338.809204 453.967651,338.809204 442.700287,338.809204 
	C442.700287,327.465851 442.700287,316.905273 442.700287,306.435364 
	C437.182831,306.435364 432.290649,306.435364 426.804535,306.435364 
	C426.804535,317.420685 426.804535,327.982147 426.804535,339.133606 
	C415.977051,339.133606 405.749023,339.133606 395.002502,339.133606 
	C395.002502,343.025146 395.291656,346.350067 394.932770,349.603546 
	C394.430725,354.155029 396.295990,355.272034 400.582794,355.119385 
	C409.174438,354.813477 417.784637,355.028564 427.002747,355.028564 
	C427.002747,361.605194 427.002747,367.546509 427.002747,374.482605 
z"/>
<path fill="#013B95" opacity="1.000000" stroke="none" 
	d="
M427.002747,373.985229 
	C427.002747,367.546509 427.002747,361.605194 427.002747,355.028564 
	C417.784637,355.028564 409.174438,354.813477 400.582794,355.119385 
	C396.295990,355.272034 394.430725,354.155029 394.932770,349.603546 
	C395.291656,346.350067 395.002502,343.025146 395.002502,339.133606 
	C405.749023,339.133606 415.977051,339.133606 426.804535,339.133606 
	C426.804535,327.982147 426.804535,317.420685 426.804535,306.435364 
	C432.290649,306.435364 437.182831,306.435364 442.700287,306.435364 
	C442.700287,316.905273 442.700287,327.465851 442.700287,338.809204 
	C453.967651,338.809204 464.649414,338.809204 475.656494,338.809204 
	C475.656494,344.493866 475.656494,349.392365 475.656494,354.863831 
	C464.994934,354.863831 454.427277,354.863831 443.251282,354.863831 
	C443.251282,365.632172 443.251282,375.859802 443.251282,386.537445 
	C437.762085,386.537445 432.868500,386.537445 427.002747,386.537445 
	C427.002747,382.622620 427.002747,378.552612 427.002747,373.985229 
z"/>
</svg>